<svg height='100px' width='100px'  fill="#FFFFFF" xmlns="http://www.w3.org/2000/svg" viewBox="0 0 32 32" x="0px" y="0px"><title>100-print</title><g data-name="100-print"><path d="M31,27H27a1,1,0,0,1,0-2h3V12H2V25H5a1,1,0,0,1,0,2H1a1,1,0,0,1-1-1V11a1,1,0,0,1,1-1H31a1,1,0,0,1,1,1V26A1,1,0,0,1,31,27Z"></path><path d="M27,12H5a1,1,0,0,1-1-1V7a1,1,0,0,1,.29-.71l6-6A1,1,0,0,1,11,0H27a1,1,0,0,1,1,1V11A1,1,0,0,1,27,12ZM6,10H26V2H11.41L6,7.41Z"></path><path d="M11,8H5A1,1,0,0,1,5,6h5V1a1,1,0,0,1,2,0V7A1,1,0,0,1,11,8Z"></path><path d="M27,32H5a1,1,0,0,1-1-1V19a1,1,0,0,1,1-1H27a1,1,0,0,1,1,1V31A1,1,0,0,1,27,32ZM6,30H26V20H6Z"></path><path d="M23,24H9a1,1,0,0,1,0-2H23a1,1,0,0,1,0,2Z"></path><path d="M23,28H9a1,1,0,0,1,0-2H23a1,1,0,0,1,0,2Z"></path></g></svg>