<?xml version="1.0" encoding="utf-8"?>
<!-- Generator: Adobe Illustrator 23.1.0, SVG Export Plug-In . SVG Version: 6.00 Build 0)  -->
<svg version="1.1" id="Layer_1" xmlns="http://www.w3.org/2000/svg" xmlns:xlink="http://www.w3.org/1999/xlink" x="0px" y="0px"
	 viewBox="0 0 100 100" style="enable-background:new 0 0 100 100;" xml:space="preserve">
<style type="text/css">
	.st0{fill:none;}
	.st1{fill:#FFFFFF;}
</style>
<g transform="translate(50 50) scale(-0.69 0.69) rotate(0) translate(-50 -50)">
	<path class="st0" d="M49.4,9.9C23.2,9.9,2,31.1,2,57.3s21.2,47.3,47.3,47.3s47.3-21.2,47.3-47.3c0-8.5-2.3-16.7-6.3-23.7L49.4,57.3
		V9.9z"/>
	<path class="st1" d="M106.8,24.1l-16.5,9.5c4.2,7,6.4,15.2,6.4,23.7c0,26.1-21.2,47.3-47.3,47.3S2,83.4,2,57.3
		C2,32.1,21.7,11.4,46.5,9.9c0,1.9,0,3.8,0,5.7v5.1c0,4.2,3,5.9,6.6,3.8l10.2-5.9c3.6-2.1,9.5-5.5,13.1-7.6l10.2-5.9
		c3.6-2.1,3.6-5.5,0-7.6L76.4-8.3c-3.6-2.1-9.5-5.5-13.1-7.6l-10.2-5.7c-3.6-2.1-6.6-0.6-6.6,3.4c0,2.7,0,6.1,0,9.1
		C11.3-7.5-16.9,21.7-16.9,57.3c0,36.6,29.7,66.3,66.3,66.3s66.3-29.7,66.3-66.3C115.7,45.1,112.4,34,106.8,24.1z"/>
</g>
</svg>
